# xmcd CD database file
#
# Track frame offsets:
#	150
#	34425
#	70050
#
# Disc length: 1310 seconds
#
# Revision: 0
# Processed by: cddbd v1.5.2PL0 Copyright (c) Steve Scherf et al.
# Submitted via: CDex 1.51
#
DISCID=24051c03
DTITLE=Various Artist - SPA - stillhet and harmoni
DYEAR=2007
DGENRE=New Age
TTITLE0=Morning Light
TTITLE1=Peaceful Mind
TTITLE2=Deep Blue
EXTD=YEAR: 2007
EXTT0=
EXTT1=
EXTT2=
PLAYORDER=
